# xmcd
#
# Track frame offsets: 
#        150
#        12025
#        24025
#        37567
#        49285
#        64727
#        79727
#        93650
#        108005
#        121400
#        133427
#        145475
#
# Disc length: 2095 seconds
#
# Revision: 0
# Processed by: cddbd v1.4PL0 Copyright (c) Steve Scherf et al.
# Submitted via: ExactAudioCopy v0.95a3
#
DISCID=96082d0c
DTITLE=Floyd Cramer  - Floyd Cramer Plays His All-Time Favorites (1 of
DTITLE=3)
DYEAR=1998
DGENRE=Country
TTITLE0=Blue Eyes Crying In The Rain
TTITLE1=Yesterday
TTITLE2=Love Is Blue
TTITLE3=Gentle On My MInd
TTITLE4=Unchained Melody
TTITLE5=Love Theme From "Romeo And Juliet"
TTITLE6=I Can't Stop Loving You
TTITLE7=I Will Always Love You
TTITLE8=Always
TTITLE9=Time In A Bottle
TTITLE10=The Homecoming
TTITLE11=Fire And Rain
EXTD=
EXTT0=
EXTT1=
EXTT2=
EXTT3=
EXTT4=
EXTT5=
EXTT6=
EXTT7=
EXTT8=
EXTT9=
EXTT10=
EXTT11=
PLAYORDER=
